<?xml version="1.0" standalone="no"?><!DOCTYPE svg PUBLIC "-//W3C//DTD SVG 1.1//EN" "http://www.w3.org/Graphics/SVG/1.1/DTD/svg11.dtd"><svg t="1587982538198" class="icon" viewBox="0 0 1024 1024" version="1.1" xmlns="http://www.w3.org/2000/svg" p-id="1462" xmlns:xlink="http://www.w3.org/1999/xlink" width="128" height="128"><defs><style type="text/css"></style></defs><path d="M512 64C262.4 64 64 262.4 64 512s198.4 448 448 448 448-198.4 448-448-198.4-448-448-448z m0-64c281.6 0 512 230.4 512 512s-230.4 512-512 512-512-230.4-512-512 230.4-512 512-512z m-6.4 467.2l160-160c12.8-12.8 32-12.8 44.8 0 12.8 12.8 12.8 32 0 44.8L550.4 512l160 160c12.8 12.8 12.8 32 0 44.8-12.8 12.8-32 12.8-44.8 0L505.6 556.8l-160 160c-12.8 12.8-32 12.8-44.8 0-12.8-12.8-12.8-32 0-44.8L460.8 512 300.8 352c-12.8-12.8-12.8-32 0-44.8 12.8-12.8 32-12.8 44.8 0l160 160z" p-id="1463" fill="#bfbfbf"></path></svg>