<?xml version="1.0" standalone="no"?><!DOCTYPE svg PUBLIC "-//W3C//DTD SVG 1.1//EN" "http://www.w3.org/Graphics/SVG/1.1/DTD/svg11.dtd"><svg t="1588053784887" class="icon" viewBox="0 0 1024 1024" version="1.1" xmlns="http://www.w3.org/2000/svg" p-id="2061" xmlns:xlink="http://www.w3.org/1999/xlink" width="128" height="128"><defs><style type="text/css"></style></defs><path d="M512 1024C230.4 1024 0 793.6 0 512S230.4 0 512 0s512 230.4 512 512-230.4 512-512 512z m0-70.4c243.2 0 441.6-198.4 441.6-441.6S755.2 70.4 512 70.4 70.4 268.8 70.4 512 268.8 953.6 512 953.6z" fill="#181818" p-id="2062"></path><path d="M518.4 256c44.8 0 83.2 12.8 108.8 38.4C652.8 320 672 352 672 396.8c0 32-6.4 64-25.6 83.2l-57.6 57.6c-19.2 6.4-25.6 19.2-32 32-6.4 12.8-12.8 32-12.8 51.2v12.8h-76.8v-12.8c0-25.6 6.4-51.2 12.8-64 6.4-19.2 38.4-51.2 76.8-89.6L576 448c12.8-19.2 19.2-32 19.2-51.2 0-25.6-6.4-44.8-19.2-57.6-12.8-12.8-38.4-19.2-64-19.2-32 0-51.2 12.8-64 32-12.8 12.8-19.2 38.4-19.2 70.4H352c0-51.2 12.8-89.6 44.8-121.6 32-32 70.4-44.8 121.6-44.8z m-12.8 409.6c12.8 0 25.6 6.4 38.4 12.8 12.8 6.4 12.8 19.2 12.8 38.4 0 12.8-6.4 25.6-12.8 38.4-12.8 6.4-25.6 12.8-38.4 12.8s-25.6-6.4-38.4-12.8c-12.8-12.8-12.8-19.2-12.8-38.4 0-12.8 6.4-25.6 12.8-38.4 12.8-6.4 25.6-12.8 38.4-12.8z" fill="#181818" p-id="2063"></path></svg>