<?xml version="1.0" standalone="no"?><!DOCTYPE svg PUBLIC "-//W3C//DTD SVG 1.1//EN" "http://www.w3.org/Graphics/SVG/1.1/DTD/svg11.dtd"><svg t="1588052823569" class="icon" viewBox="0 0 1024 1024" version="1.1" xmlns="http://www.w3.org/2000/svg" p-id="7662" xmlns:xlink="http://www.w3.org/1999/xlink" width="128" height="128"><defs><style type="text/css"></style></defs><path d="M806.4 310.144 217.6 310.144c-1.408 0-2.56 1.152-2.56 2.56l0 55.296c0 1.408 1.152 2.56 2.56 2.56l588.8 0c1.408 0 2.56-1.152 2.56-2.56l0-55.296C808.96 311.296 807.808 310.144 806.4 310.144z" p-id="7663" fill="#ffffff"></path><path d="M806.4 484.864 217.6 484.864c-1.408 0-2.56 1.152-2.56 2.56L215.04 542.72c0 1.408 1.152 2.56 2.56 2.56l588.8 0c1.408 0 2.56-1.152 2.56-2.56l0-55.296C808.96 486.016 807.808 484.864 806.4 484.864z" p-id="7664" fill="#ffffff"></path><path d="M806.4 659.712 217.6 659.712c-1.408 0-2.56 1.152-2.56 2.56l0 55.296c0 1.408 1.152 2.56 2.56 2.56l588.8 0c1.408 0 2.56-1.152 2.56-2.56l0-55.296C808.96 660.864 807.808 659.712 806.4 659.712z" p-id="7665" fill="#ffffff"></path></svg>