<?xml version="1.0" standalone="no"?><!DOCTYPE svg PUBLIC "-//W3C//DTD SVG 1.1//EN" "http://www.w3.org/Graphics/SVG/1.1/DTD/svg11.dtd"><svg t="1588155442856" class="icon" viewBox="0 0 1024 1024" version="1.1" xmlns="http://www.w3.org/2000/svg" p-id="2067" xmlns:xlink="http://www.w3.org/1999/xlink" width="128" height="128"><defs><style type="text/css"></style></defs><path d="M512 64a448 448 0 1 1-448 448 448 448 0 0 1 448-448m0-64a512 512 0 1 0 512 512 512 512 0 0 0-512-512z" p-id="2068" fill="#ffffff"></path><path d="M768 362.24a32 32 0 0 0-44.8 0L448 632.96 302.72 486.4a32 32 0 1 0-46.72 44.8l148.48 147.2 45.44 45.44L768 407.68a32 32 0 0 0 0-45.44z" p-id="2069" fill="#ffffff"></path></svg>