<?xml version="1.0" standalone="no"?><!DOCTYPE svg PUBLIC "-//W3C//DTD SVG 1.1//EN" "http://www.w3.org/Graphics/SVG/1.1/DTD/svg11.dtd"><svg t="1588140799643" class="icon" viewBox="0 0 1024 1024" version="1.1" xmlns="http://www.w3.org/2000/svg" p-id="1120" xmlns:xlink="http://www.w3.org/1999/xlink" width="128" height="128"><defs><style type="text/css"></style></defs><path d="M511.4 866.2c-11.6 0-23.3-0.6-34.9-1.7l-0.7-0.1-6.9-1h-1.4c-5.5 0-10.5-0.8-15.8-1.6l-2.4-0.4h-0.1c-0.2 0-0.4-0.1-0.5-0.1-0.4-0.1-0.8-0.2-1.1-0.3-0.8-0.2-1.9-0.5-3.3-0.6-1.5-0.4-2.9-0.7-4.2-1-0.7-0.1-1.4-0.3-2.1-0.5-1.5-0.4-2.8-0.7-4-0.9-0.9-0.2-1.7-0.4-2.3-0.5l-0.9-0.2-0.9-0.2c-6.5-1.1-12.7-2.7-19.3-4.9-1.6-0.6-3-1-4.2-1.4-0.4-0.1-0.9-0.2-1.3-0.4l-0.9-0.3-1-0.2c-0.5-0.1-1.7-0.4-3.6-1l-0.7-0.2-0.7-0.2c-7.8-2-14.9-4.9-21.4-7.7l-6.8-3.5-0.7-0.3c-39.3-16.6-76-41.9-106.3-73.1l-1-1-0.7-0.8c-2.6-3-5.3-6-8.3-8.9-0.9-1-1.8-2-2.7-2.9-3-3.3-5.9-6.3-8.4-9.7l-0.4-0.6-0.5-0.5c-1.2-1.3-1.5-1.8-1.6-1.9l-0.3-0.4-0.6-0.8c-0.4-0.6-1.1-1.5-2-2.6l-0.5-0.6c-3.8-4.6-7.8-9.7-12-15.9l-0.4-0.6-0.3-0.4c0-0.1-0.1-0.2-0.2-0.3l-0.7-1.5-0.9-1.4c-37.7-56.5-58.7-121.8-60.7-189l-0.6-18.5H96L196 353l100 152.5h-65.7l0.8 19.9c2.5 59.6 23.6 116.6 61.2 164.7l0.2 0.2 0.2 0.3c0.9 1.7 2 3.5 3.7 5.2 22.6 26.6 48.8 48.7 78 65.9l4.5 2.6h1c5.8 3.7 11.9 6.8 19.7 10.1l3.3 1.4c6 2.5 12.3 5.2 18.7 7.1l1.9 0.6 1.9 0.2c0.3 0 1.5 0.2 4.1 1.3l0.6 0.3 0.6 0.2c5.4 2 10.7 3.1 16.6 4.3l1.9 0.4h0.1c1.2 0.2 2.4 0.4 3.5 0.6 0.5 0.1 1.1 0.2 1.6 0.3 0.6 0.1 1.5 0.2 1.8 0.3l1.1 0.4 1.2 0.2c2.8 0.6 5.6 0.8 8.6 1.1l3 0.3c1.6 0.2 3.1 0.3 4.2 0.5l1.9 0.4h1c0.7 0.1 1.3 0.2 2 0.3 1.7 0.3 3.8 0.6 6.1 0.6h0.1c8.3 0.9 17 1.4 26.5 1.4 56.6 0 112.9-17.8 158.7-50.1l0.3-0.1 1.1-0.8c6.5-4.5 13.4-6.8 20.3-6.8 2.3 0 4.2 0.1 5.8 0.5 7.7 1.4 15.1 5 22.6 11l0.7 1c11.3 16.5 7.4 38.6-8.8 50.4-58.8 42.2-128.2 64.5-201.2 64.5zM723.5 522.1H789l-0.8-19.9c-2.5-60.3-24.4-118.9-61.8-165.2v-1.3l-4.4-5.3c-27.2-32.7-62.1-59-101-76.3l-3.6-1.8c-5.1-2.6-10.5-4.4-15.2-5.9l-1.8-0.6c-1.5-0.6-2.9-1.1-4.1-1.4l-5.6-2.3-8-2c-3.4-1-7.2-1.9-11.3-2.6h-0.1c-0.5-0.2-1-0.4-1.4-0.5l-0.3-0.1-0.3-0.1c-0.4-0.1-0.8-0.2-1.1-0.3-1.4-0.4-3.7-1.1-6.7-1.2l-18.8-3.1-7.9-1.1h-0.4c-8.9-0.8-18-1.2-27-1.2-56.6 0-112.9 17.8-158.7 50.1l-0.3 0.1-1.1 0.7c-6.5 4.5-13.4 6.8-20.3 6.8-2.3 0-4.2-0.1-5.8-0.5-9.6-1.8-17.5-7-22.8-15l-0.1-0.2c-11.2-16.5-7.4-38.6 8.8-50.3 58.5-41.8 128.1-63.8 201.1-63.8h5.4c9 0 18.3 0 27.3 1l1.1 0.1h1.1c0.8 0 1.7 0.1 2.8 0.3 0.6 0.1 1.2 0.1 1.8 0.2h0.3c1.5 0.2 3.3 0.4 5.4 0.5 3.1 0.7 6.1 0.9 8.6 1.1 1 0.1 1.9 0.2 2.9 0.3 1.6 0.2 3.1 0.3 4.2 0.5l1.9 0.4h1.1l2.3 0.8h1.1c0.3 0 0.6 0.1 1 0.1l12.1 3.1 22.3 6.4 9.4 3.1 23.9 8.9 1.5 1.5 3.3 0.7 0.2 0.1 1.6 0.7c50 21.7 94.8 55.8 129.4 98.5l0.6 0.8 2.7 2.7c5 5.9 9.4 11.4 13.6 17.2v1.3l3.2 4.8c37.9 57.1 58.9 122.6 61 189.4l0.6 18.3 18.3 0.2c1.1 0 27.2 0.2 39.3 0.2 5.2 0 6.2 0 7.1-0.1l0.7-0.1h0.4C919 534.1 861 622.5 827.4 673.7L723.5 522.1z" fill="#ff6a00" p-id="1121"></path></svg>